# xmcd
#
# Track frame offsets:
#	300
#	23291
#	45502
#	63182
#	79620
#	99243
#	117676
#	135115
#	154301
#	173129
#	188173
#	206051
#	225283
#	244584
#	262754
#	280106
#	305711
#	323016
#
# Disc length: 4627 seconds
#
# Revision: 4
# Processed by: cddbd v1.5.2PL0 Copyright (c) Steve Scherf et al.
# Submitted via: audiograbber 1.83.01
#
DISCID=dc120f12
DTITLE=Various Artist - SFG322
DYEAR=2012
DGENRE=Karaoke
TTITLE0=Robbie Williams - Different
TTITLE1=Fun - Carry on
TTITLE2=One Direction - Little things
TTITLE3=Rita Ora - Shine ya light
TTITLE4=Little Mix - DNA
TTITLE5=Bruno Mars - Young girls
TTITLE6=Amelia Lily - Shut up (and give me whatever you've got)
TTITLE7=Script - Six degrees of separation
TTITLE8=Wiley f. Skepta, JME and Ms D - Can you hear me (ayayaya)
TTITLE9=Olly Murs f. Flo Rida - Troublemaker
TTITLE10=McFly - Love is easy
TTITLE11=Rudimental  f. John Newman and Alex Clare - Not giving in
TTITLE12=Chris Brown - Don't judge me
TTITLE13=Misha B - Do you think of me
TTITLE14=Ne-Yo - Forever now
TTITLE15=Ed Sheeran - Give me love
TTITLE16=Kesha - Die young
TTITLE17=Mumford and Sons - Lover of the light
EXTD=YEAR: 2012
EXTT0=
EXTT1=
EXTT2=
EXTT3=
EXTT4=
EXTT5=
EXTT6=
EXTT7=
EXTT8=
EXTT9=
EXTT10=
EXTT11=
EXTT12=
EXTT13=
EXTT14=
EXTT15=
EXTT16=
EXTT17=
PLAYORDER=
